# xmcd CD database file
#
# Track frame offsets:
#	150
#	17507
#	39635
#	60122
#	79025
#	97172
#	119677
#	157177
#	169885
#	193340
#	215297
#
# Disc length: 3210 seconds
#
# Revision: 2
# Processed by: cddbd v1.4PL0 Copyright (c) Steve Scherf et al.
# Submitted via: CDex 1.51
#
DISCID=950c880b
DTITLE=Dave Hole - Working Overtime
DYEAR=1993
DGENRE=Blues
TTITLE0=Nobody Hears Me Crying
TTITLE1=You Got To Reap Everything You Sow
TTITLE2=Stormy Seas
TTITLE3=Mean Old Airplane
TTITLE4=Working Overtime
TTITLE5=Key To The Highway
TTITLE6=Up All Night Thinking
TTITLE7=I Can't Be Satisfied
TTITLE8=Twenty Years
TTITLE9=Crazy Kind Of Woman
TTITLE10=Berwick Road
EXTD=YEAR: 1993
EXTT0=
EXTT1=
EXTT2=
EXTT3=
EXTT4=
EXTT5=
EXTT6=
EXTT7=
EXTT8=
EXTT9=
EXTT10=
PLAYORDER=
